<svg xmlns="http://www.w3.org/2000/svg" viewBox="0 0 512 512" role="img" aria-label="Hidden">
  <defs>
    <linearGradient id="bg" x1="64" y1="48" x2="448" y2="464" gradientUnits="userSpaceOnUse">
      <stop offset="0" stop-color="#15263d"/>
      <stop offset="1" stop-color="#050d18"/>
    </linearGradient>
    <linearGradient id="gold" x1="0" y1="0" x2="1" y2="1">
      <stop offset="0" stop-color="#fde68a"/>
      <stop offset="1" stop-color="#f59e0b"/>
    </linearGradient>
    <filter id="goldGlow" x="-40%" y="-80%" width="180%" height="260%">
      <feGaussianBlur stdDeviation="6" result="blur"/>
      <feMerge>
        <feMergeNode in="blur"/>
        <feMergeNode in="SourceGraphic"/>
      </feMerge>
    </filter>
  </defs>
  <rect width="512" height="512" rx="108" fill="url(#bg)"/>
  <rect x="88" y="132" width="336" height="30" rx="15" fill="#e8e6e3" opacity="0.28"/>
  <rect x="88" y="198" width="128" height="30" rx="15" fill="#e8e6e3" opacity="0.28"/>
  <rect x="232" y="198" width="104" height="30" rx="15" fill="url(#gold)" filter="url(#goldGlow)"/>
  <rect x="352" y="198" width="72" height="30" rx="15" fill="#e8e6e3" opacity="0.28"/>
  <rect x="88" y="264" width="96" height="30" rx="15" fill="#e8e6e3" opacity="0.28"/>
  <rect x="200" y="264" width="136" height="30" rx="15" fill="#243447" stroke="#3d4f63" stroke-width="2"/>
  <rect x="352" y="264" width="72" height="30" rx="15" fill="#e8e6e3" opacity="0.28"/>
  <rect x="88" y="330" width="224" height="30" rx="15" fill="#e8e6e3" opacity="0.22"/>
  <rect x="168" y="396" width="176" height="22" rx="11" fill="url(#gold)" opacity="0.55"/>
</svg>
